PathFileType	4	(X/Y/Z)	C:/Users/opensim2020/Desktop/walking_exp_matlab/subject01_walking12_straight_01.trc	
DataRate	CameraRate	NumFrames	NumMarkers	Units	OrigDataRate	OrigDataStartFrame	OrigNumFrames	
100.00	100.00	4	44	mm	100.00	667	193	
Frame#	Time	LFHD			RFHD			LBHD			RBHD			C7			T10			CLAV			STRN			RBAK			LSHO			LUPA			LELB			LFRM			LWRA			LWRB			LFIN			RSHO			RUPA			RELB			RFRM			RWRA			RWRB			RFIN			LASI			RASI			LPSI			RPSI			LTHI			LKNE			LTIB			LANK			LHEE			LTOE			RTHI			RKNE			RTIB			RANK			RHEE			RTOE			*39			*40			*41			*42			*43			
		X1	Y1	Z1	X2	Y2	Z2	X3	Y3	Z3	X4	Y4	Z4	X5	Y5	Z5	X6	Y6	Z6	X7	Y7	Z7	X8	Y8	Z8	X9	Y9	Z9	X10	Y10	Z10	X11	Y11	Z11	X12	Y12	Z12	X13	Y13	Z13	X14	Y14	Z14	X15	Y15	Z15	X16	Y16	Z16	X17	Y17	Z17	X18	Y18	Z18	X19	Y19	Z19	X20	Y20	Z20	X21	Y21	Z21	X22	Y22	Z22	X23	Y23	Z23	X24	Y24	Z24	X25	Y25	Z25	X26	Y26	Z26	X27	Y27	Z27	X28	Y28	Z28	X29	Y29	Z29	X30	Y30	Z30	X31	Y31	Z31	X32	Y32	Z32	X33	Y33	Z33	X34	Y34	Z34	X35	Y35	Z35	X36	Y36	Z36	X37	Y37	Z37	X38	Y38	Z38	X39	Y39	Z39	X40	Y40	Z40	X41	Y41	Z41	X42	Y42	Z42	X43	Y43	Z43	X44	Y44	Z44	

49	0.480	-1088.91797	-576.98267	1665.40430	-976.56366	-563.84064	1674.35669	-1079.54529	-687.96143	1608.90161	-960.04279	-676.76227	1616.68311	-1029.67883	-711.04321	1426.69421	-1011.01489	-758.91980	1136.37732	-1029.59290	-570.21851	1352.70325	-1027.33447	-534.19104	1195.33215	-939.57446	-770.83258	1239.04370	-1190.12671	-635.61273	1379.44641	-1259.50208	-689.12683	1192.81604	-1242.70557	-717.26221	1045.80298	-1269.21387	-701.56866	934.85669	-1266.74915	-637.62537	809.15369	-1273.81506	-697.64722	812.23102	-1289.68005	-665.98212	734.45581	-878.40979	-627.29816	1389.33704	-761.38531	-658.90674	1194.48633	-749.33362	-639.75922	1068.79321	-727.41589	-575.97211	962.72778	-765.10657	-471.30112	874.07245	-718.74799	-505.50781	863.28412	-725.84174	-445.57413	804.21234	-1115.40051	-589.81140	928.18951	-898.29407	-605.47321	916.91998	-1078.53430	-778.70428	941.09045	-934.66479	-788.11945	943.74548	-1191.68250	-530.83704	618.30115	-1173.02490	-497.93262	489.17609	-1191.91333	-516.63171	304.72903	-1152.99536	-499.46652	80.93151	-1099.22485	-538.55292	42.07026	-1155.96570	-353.44305	66.49580	-858.44934	-717.84509	592.70410	-888.90259	-738.62549	435.52496	-887.09985	-816.50958	277.93378	-938.30579	-872.62115	80.31772	-988.44025	-927.00800	47.38936	-936.83466	-738.21918	31.59978	-999.22711	-579.08087	1706.16443	-3102.29419	1973.06213	1023.97217	-3138.25830	2013.24512	1022.18744						 
50	0.490	-1090.52869	-567.49707	1664.15295	-977.70026	-553.94830	1673.81885	-1081.32214	-678.50146	1607.76050	-961.64679	-667.08807	1615.65466	-1031.28198	-701.66058	1425.94714	-1012.50378	-749.83203	1135.52148	-1031.21997	-560.78802	1351.61853	-1028.29919	-524.92065	1194.15686	-940.68298	-761.62427	1238.57141	-1191.59998	-626.02399	1378.21765	-1260.73645	-680.31952	1191.70227	-1243.72363	-709.24432	1044.92139	-1269.95801	-694.32715	933.87695	-1267.09619	-631.38434	807.62585	-1274.13794	-691.27405	811.15765	-1289.90405	-660.28571	733.20154	-879.92029	-617.75970	1388.70813	-762.30658	-648.76184	1194.28735	-749.80267	-629.51819	1068.55457	-727.90869	-564.71014	963.06458	-765.43237	-458.95883	875.65277	-719.34857	-493.56622	864.39886	-726.22675	-432.40320	806.27869	-1115.64197	-579.53265	926.93781	-898.63092	-596.48810	916.49561	-1080.03503	-768.73370	939.73907	-936.27814	-778.99542	943.19177	-1193.28149	-524.48999	615.36737	-1174.01099	-489.95007	487.44247	-1193.48792	-501.40567	302.99664	-1155.54468	-474.71747	79.77147	-1102.58252	-513.00421	39.25404	-1156.66650	-328.10733	71.27877	-858.46887	-711.70599	593.12793	-888.89716	-734.69263	436.01877	-887.17114	-813.59222	279.03305	-938.42078	-871.90436	81.65572	-988.60535	-926.72968	49.87931	-936.67542	-738.08484	31.48907	-1000.93225	-569.52850	1705.09680	-3101.85010	1973.22534	1024.14526	-3138.19556	2013.16516	1022.19250						 
51	0.500	-1092.22021	-557.84454	1663.01392	-979.52875	-544.27222	1672.71167	-1083.04907	-668.82806	1606.62732	-963.27222	-657.42426	1614.60474	-1032.94250	-692.17017	1424.89063	-1014.17615	-740.50116	1134.56824	-1032.38232	-551.40588	1350.43481	-1029.36877	-515.59973	1193.05786	-942.04608	-752.48383	1237.99097	-1193.24817	-616.30273	1377.05701	-1262.15369	-671.37213	1190.67383	-1244.89136	-700.98761	1044.05432	-1270.83752	-686.84082	932.90582	-1267.57568	-624.75800	806.22296	-1274.89368	-684.68945	810.18359	-1290.29614	-654.13507	731.90601	-881.52295	-608.26221	1387.93066	-763.35199	-638.68201	1194.12244	-750.40009	-619.38989	1068.33801	-728.51123	-553.79163	963.48785	-765.95941	-447.03177	877.05933	-719.82025	-481.05685	865.48199	-726.68469	-419.62738	808.05591	-1115.92639	-569.08319	925.60791	-899.05359	-587.44141	916.01862	-1081.60205	-758.59753	938.31934	-937.91675	-769.62109	942.67023	-1194.79541	-517.79901	612.39728	-1175.30493	-481.77094	485.72430	-1195.35950	-486.77655	301.51144	-1157.50891	-451.95599	79.10118	-1105.03870	-489.32443	37.25426	-1157.45691	-304.99597	75.43833	-858.68225	-705.51111	593.49341	-888.61206	-729.50519	436.26248	-887.20459	-810.91101	280.29971	-938.34985	-871.10291	83.43818	-988.74066	-925.87042	51.94795	-936.48151	-737.97455	31.40414	-1002.97583	-559.87701	1703.73218	-3102.16162	1973.08960	1024.12463	-3138.41016	2013.07715	1022.09442						 
52	0.510	-1094.03467	-548.11414	1661.88696	-981.91974	-535.34308	1671.30933	-1084.88879	-659.08606	1605.51013	-965.12286	-647.73138	1613.53528	-1034.80835	-682.52148	1423.92688	-1015.96448	-731.10565	1133.58899	-1034.36768	-541.73816	1349.41724	-1030.55151	-506.08749	1192.01770	-943.63354	-743.31653	1237.37354	-1194.93298	-606.39191	1375.87512	-1263.70972	-662.19952	1189.62891	-1246.20435	-692.53192	1043.22961	-1271.79871	-678.87775	931.80896	-1268.11218	-617.68054	804.86639	-1275.70483	-677.57269	809.19550	-1290.87024	-647.54315	730.69904	-883.40686	-598.92004	1387.13904	-764.57520	-628.76282	1193.99194	-751.16071	-609.43732	1068.11389	-729.19348	-542.82196	963.70313	-766.59656	-435.40515	878.35400	-720.49127	-469.36340	866.44049	-727.18689	-407.47931	809.73822	-1116.19690	-558.46033	924.23010	-899.44891	-578.10254	915.59729	-1083.23230	-748.29559	936.95081	-939.63672	-760.10229	942.10272	-1196.84497	-509.97452	609.91553	-1177.00244	-473.33060	484.24692	-1197.31311	-472.80338	300.20239	-1158.91699	-431.36761	78.50454	-1106.55420	-467.52274	35.69249	-1158.36853	-284.17795	79.36548	-858.76172	-698.62543	593.77667	-888.28979	-724.32025	436.26154	-887.19507	-807.82800	281.73846	-938.10004	-870.35205	85.61545	-988.57977	-925.78064	55.18075	-936.27380	-737.76630	31.42066	-1004.74420	-550.13745	1702.65039	-3102.76929	1972.93201	1024.09033	-3138.31055	2013.19373	1022.29352						 
